<?xml version="1.0" encoding="UTF-8"?>
<!-- Generated by Qucs-RFlayout from : circuit.sch -->
<svg xmlns="http://www.w3.org/2000/svg" version="1.1" preserveAspectRatio="xMidYMid meet" viewBox="38.4 38.4 110.496 95.2024" width="19.0755mm" height="15.029mm">
  <g id="circuit" transform="scale(3.779527559)">
    <rect id="P1" x="10.255" y="17.6695" width="0.01" height="0.01" fill="black" stroke="none"/>
    <path id="MLin" d="M10.26 18.3877 L18.9845 18.3877 L18.9845 16.9612 L10.26 16.9612 Z" fill="black" stroke="none"/>
    <path id="J1" d="M18.9845 16.9612 L20.411 16.9612 L20.411 18.3877 L18.9845 18.3877 Z" fill="black" stroke="none"/>
    <path id="MSW1" d="M20.401 16.9612 L18.9945 16.9612 L14.4555 12.2862 L14.4555 12.2862 L14.6316 12.1206 L14.8129 11.9609 L14.9992 11.807 L15.1903 11.6592 L15.3861 11.5176 L15.5863 11.3823 L15.7908 11.2536 L15.9993 11.1315 L16.2116 11.0161 L16.4276 10.9077 L16.6468 10.8062 L16.8693 10.7118 L17.0946 10.6246 L17.3226 10.5446 L17.5531 10.4721 L17.7858 10.4069 L18.0205 10.3493 L18.2569 10.2992 L18.4947 10.2568 L18.7338 10.222 L18.9739 10.1949 L19.2148 10.1755 L19.4561 10.1639 L19.6978 10.16 L19.9394 10.1639 L20.1807 10.1755 L20.4216 10.1949 L20.6617 10.222 L20.9008 10.2568 L21.1386 10.2992 L21.375 10.3493 L21.6097 10.4069 L21.8424 10.4721 L22.0729 10.5446 L22.3009 10.6246 L22.5262 10.7118 L22.7487 10.8062 L22.9679 10.9077 L23.1839 11.0161 L23.3962 11.1315 L23.6047 11.2536 L23.8092 11.3823 L24.0094 11.5176 L24.2052 11.6592 L24.3963 11.807 L24.5826 11.9609 L24.7639 12.1206 L24.94 12.2862 L24.94 12.2862 Z" fill="black" stroke="none"/>
    <path id="MSW2" d="M20.401 18.3877 L18.9945 18.3877 L14.4555 23.0628 L14.4555 23.0628 L14.6316 23.2283 L14.8129 23.3881 L14.9992 23.542 L15.1903 23.6898 L15.3861 23.8314 L15.5863 23.9666 L15.7908 24.0954 L15.9993 24.2175 L16.2116 24.3328 L16.4276 24.4413 L16.6468 24.5428 L16.8693 24.6372 L17.0946 24.7244 L17.3226 24.8043 L17.5531 24.8769 L17.7858 24.942 L18.0205 24.9997 L18.2569 25.0497 L18.4947 25.0922 L18.7338 25.127 L18.9739 25.1541 L19.2148 25.1735 L19.4561 25.1851 L19.6978 25.189 L19.9394 25.1851 L20.1807 25.1735 L20.4216 25.1541 L20.6617 25.127 L20.9008 25.0922 L21.1386 25.0497 L21.375 24.9997 L21.6097 24.942 L21.8424 24.8769 L22.0729 24.8043 L22.3009 24.7244 L22.5262 24.6372 L22.7487 24.5428 L22.9679 24.4413 L23.1839 24.3328 L23.3962 24.2175 L23.6047 24.0954 L23.8092 23.9666 L24.0094 23.8314 L24.2052 23.6898 L24.3963 23.542 L24.5826 23.3881 L24.7639 23.2283 L24.94 23.0628 L24.94 23.0628 Z" fill="black" stroke="none"/>
    <path id="MLout" d="M20.411 18.3877 L29.1355 18.3877 L29.1355 16.9612 L20.411 16.9612 Z" fill="black" stroke="none"/>
    <rect id="P2" x="29.1305" y="17.6695" width="0.01" height="0.01" fill="black" stroke="none"/>
  </g>
</svg>
