<?xml version="1.0" encoding="UTF-8"?>
<!-- Generated by Qucs-RFlayout from : circuit.sch -->
<svg xmlns="http://www.w3.org/2000/svg" version="1.1" preserveAspectRatio="xMidYMid meet" viewBox="38.4 38.4 106.923 84.377" width="18.1301mm" height="12.1647mm">
  <g id="circuit" transform="scale(3.779527559)">
    <rect id="P1" x="10.255" y="16.2374" width="0.01" height="0.01" fill="black" stroke="none"/>
    <path id="MLin" d="M10.26 16.4948 L18.9726 16.4948 L18.9726 15.9899 L10.26 15.9899 Z" fill="black" stroke="none"/>
    <path id="J1" d="M18.9726 15.9899 L19.4775 15.9899 L19.4775 16.4948 L18.9726 16.4948 Z" fill="black" stroke="none"/>
    <path id="MSW1" d="M20.1642 15.9899 L18.2859 15.9899 L14.6219 11.93 L14.6219 11.93 L14.7801 11.7916 L14.9424 11.6581 L15.1087 11.5296 L15.2789 11.4063 L15.4527 11.2882 L15.6301 11.1755 L15.8109 11.0683 L15.9949 10.9667 L16.1819 10.8707 L16.3717 10.7805 L16.5642 10.6962 L16.7592 10.6178 L16.9565 10.5453 L17.1559 10.479 L17.3573 10.4188 L17.5604 10.3647 L17.765 10.3169 L17.971 10.2754 L18.1783 10.2402 L18.3864 10.2114 L18.5954 10.1889 L18.805 10.1729 L19.0149 10.1632 L19.225 10.16 L19.4352 10.1632 L19.6451 10.1729 L19.8547 10.1889 L20.0637 10.2114 L20.2718 10.2402 L20.4791 10.2754 L20.6851 10.3169 L20.8897 10.3647 L21.0928 10.4188 L21.2942 10.479 L21.4936 10.5453 L21.6909 10.6178 L21.8859 10.6962 L22.0784 10.7805 L22.2682 10.8707 L22.4552 10.9667 L22.6392 11.0683 L22.82 11.1755 L22.9974 11.2882 L23.1712 11.4063 L23.3414 11.5296 L23.5077 11.6581 L23.67 11.7916 L23.8282 11.93 L23.8282 11.93 Z" fill="black" stroke="none"/>
    <path id="MSW2" d="M20.1642 16.4948 L18.2859 16.4948 L14.6219 20.5547 L14.6219 20.5547 L14.7801 20.6931 L14.9424 20.8266 L15.1087 20.9551 L15.2789 21.0784 L15.4527 21.1965 L15.6301 21.3092 L15.8109 21.4164 L15.9949 21.518 L16.1819 21.614 L16.3717 21.7042 L16.5642 21.7886 L16.7592 21.867 L16.9565 21.9394 L17.1559 22.0058 L17.3573 22.066 L17.5604 22.12 L17.765 22.1678 L17.971 22.2093 L18.1783 22.2445 L18.3864 22.2734 L18.5954 22.2958 L18.805 22.3119 L19.0149 22.3215 L19.225 22.3247 L19.4352 22.3215 L19.6451 22.3119 L19.8547 22.2958 L20.0637 22.2734 L20.2718 22.2445 L20.4791 22.2093 L20.6851 22.1678 L20.8897 22.12 L21.0928 22.066 L21.2942 22.0058 L21.4936 21.9394 L21.6909 21.867 L21.8859 21.7886 L22.0784 21.7042 L22.2682 21.614 L22.4552 21.518 L22.6392 21.4164 L22.82 21.3092 L22.9974 21.1965 L23.1712 21.0784 L23.3414 20.9551 L23.5077 20.8266 L23.67 20.6931 L23.8282 20.5547 L23.8282 20.5547 Z" fill="black" stroke="none"/>
    <path id="MLout" d="M19.4775 16.4948 L28.1901 16.4948 L28.1901 15.9899 L19.4775 15.9899 Z" fill="black" stroke="none"/>
    <rect id="P2" x="28.1851" y="16.2374" width="0.01" height="0.01" fill="black" stroke="none"/>
  </g>
</svg>
