<?xml version="1.0" encoding="UTF-8"?>
<!-- Generated by Qucs-RFlayout from : circuit.sch -->
<svg xmlns="http://www.w3.org/2000/svg" version="1.1" preserveAspectRatio="xMidYMid meet" viewBox="38.4 38.4 69.0785 73.2856" width="8.11701mm" height="9.23016mm">
  <g id="circuit" transform="scale(3.779527559)">
    <rect id="P1" x="10.6259" y="14.7701" width="0.01" height="0.01" fill="black" stroke="none"/>
    <path id="MLin" d="M10.6309 15.1862 L13.8074 15.1862 L13.8074 14.364 L10.6309 14.364 Z" fill="black" stroke="none"/>
    <path id="J1" d="M13.8074 14.364 L14.6296 14.364 L14.6296 15.1862 L13.8074 15.1862 Z" fill="black" stroke="none"/>
    <path id="MSW1" d="M14.5801 14.364 L13.8569 14.364 L10.16 12.9601 L10.16 12.9601 L10.2427 12.7578 L10.3354 12.56 L10.438 12.3672 L10.5501 12.1797 L10.6716 11.9981 L10.802 11.8228 L10.9411 11.6543 L11.0884 11.4931 L11.2437 11.3394 L11.4066 11.1938 L11.5765 11.0565 L11.7532 10.9279 L11.936 10.8084 L12.1247 10.6983 L12.3187 10.5978 L12.5174 10.5071 L12.7205 10.4266 L12.9274 10.3564 L13.1376 10.2967 L13.3504 10.2477 L13.5655 10.2094 L13.7823 10.182 L14.0001 10.1655 L14.2185 10.16 L14.4369 10.1655 L14.6547 10.182 L14.8715 10.2094 L15.0866 10.2477 L15.2994 10.2967 L15.5096 10.3564 L15.7165 10.4266 L15.9196 10.5071 L16.1183 10.5978 L16.3123 10.6983 L16.501 10.8084 L16.6839 10.9279 L16.8605 11.0565 L17.0304 11.1938 L17.1933 11.3394 L17.3486 11.4931 L17.4959 11.6543 L17.635 11.8228 L17.7654 11.9981 L17.8869 12.1797 L17.999 12.3672 L18.1016 12.56 L18.1943 12.7578 L18.277 12.9601 L18.277 12.9601 Z" fill="black" stroke="none"/>
    <path id="MSW2" d="M14.5801 15.1862 L13.8569 15.1862 L10.16 16.5901 L10.16 16.5901 L10.2427 16.7923 L10.3354 16.9901 L10.438 17.183 L10.5501 17.3705 L10.6716 17.5521 L10.802 17.7274 L10.9411 17.8958 L11.0884 18.0571 L11.2437 18.2108 L11.4066 18.3564 L11.5765 18.4937 L11.7532 18.6222 L11.936 18.7417 L12.1247 18.8519 L12.3187 18.9524 L12.5174 19.043 L12.7205 19.1235 L12.9274 19.1937 L13.1376 19.2534 L13.3504 19.3025 L13.5655 19.3408 L13.7823 19.3682 L14.0001 19.3847 L14.2185 19.3902 L14.4369 19.3847 L14.6547 19.3682 L14.8715 19.3408 L15.0866 19.3025 L15.2994 19.2534 L15.5096 19.1937 L15.7165 19.1235 L15.9196 19.043 L16.1183 18.9524 L16.3123 18.8519 L16.501 18.7417 L16.6839 18.6222 L16.8605 18.4937 L17.0304 18.3564 L17.1933 18.2108 L17.3486 18.0571 L17.4959 17.8958 L17.635 17.7274 L17.7654 17.5521 L17.8869 17.3705 L17.999 17.183 L18.1016 16.9901 L18.1943 16.7923 L18.277 16.5901 L18.277 16.5901 Z" fill="black" stroke="none"/>
    <path id="MLout" d="M14.6296 15.1862 L17.8061 15.1862 L17.8061 14.364 L14.6296 14.364 Z" fill="black" stroke="none"/>
    <rect id="P2" x="17.8011" y="14.7701" width="0.01" height="0.01" fill="black" stroke="none"/>
  </g>
</svg>
