<?xml version="1.0" encoding="UTF-8"?>
<!-- Generated by Qucs-RFlayout from : circuit.sch -->
<svg xmlns="http://www.w3.org/2000/svg" version="1.1" preserveAspectRatio="xMidYMid meet" viewBox="38.4 38.4 71.5083 74.9755" width="8.7599mm" height="9.67727mm">
  <g id="circuit" transform="scale(3.779527559)">
    <rect id="P1" x="10.255" y="14.9936" width="0.01" height="0.01" fill="black" stroke="none"/>
    <path id="MLin" d="M10.26 16.1979 L13.3407 16.1979 L13.3407 13.7994 L10.26 13.7994 Z" fill="black" stroke="none"/>
    <path id="J1" d="M13.3407 13.7994 L15.7392 13.7994 L15.7392 16.1979 L13.3407 16.1979 Z" fill="black" stroke="none"/>
    <path id="MSW1" d="M14.7948 13.7994 L14.2851 13.7994 L12.2187 10.9032 L12.2187 10.9032 L12.3034 10.8444 L12.3897 10.7877 L12.4774 10.7334 L12.5665 10.6812 L12.6569 10.6314 L12.7485 10.584 L12.8414 10.5389 L12.9353 10.4963 L13.0304 10.4561 L13.1264 10.4183 L13.2234 10.3831 L13.3213 10.3503 L13.4199 10.3201 L13.5194 10.2925 L13.6195 10.2674 L13.7202 10.245 L13.8215 10.2251 L13.9232 10.2079 L14.0254 10.1933 L14.1279 10.1813 L14.2307 10.172 L14.3336 10.1653 L14.4368 10.1613 L14.5399 10.16 L14.6431 10.1613 L14.7463 10.1653 L14.8492 10.172 L14.952 10.1813 L15.0545 10.1933 L15.1567 10.2079 L15.2584 10.2251 L15.3597 10.245 L15.4604 10.2674 L15.5605 10.2925 L15.66 10.3201 L15.7586 10.3503 L15.8565 10.3831 L15.9535 10.4183 L16.0495 10.4561 L16.1446 10.4963 L16.2385 10.5389 L16.3314 10.584 L16.423 10.6314 L16.5134 10.6812 L16.6025 10.7334 L16.6902 10.7877 L16.7765 10.8444 L16.8612 10.9032 L16.8612 10.9032 Z" fill="black" stroke="none"/>
    <path id="MSW2" d="M14.7948 16.1979 L14.2851 16.1979 L12.2187 19.094 L12.2187 19.094 L12.3034 19.1529 L12.3897 19.2095 L12.4774 19.2639 L12.5665 19.316 L12.6569 19.3658 L12.7485 19.4133 L12.8414 19.4583 L12.9353 19.501 L13.0304 19.5412 L13.1264 19.5789 L13.2234 19.6142 L13.3213 19.6469 L13.4199 19.6771 L13.5194 19.7048 L13.6195 19.7298 L13.7202 19.7523 L13.8215 19.7722 L13.9232 19.7894 L14.0254 19.804 L14.1279 19.816 L14.2307 19.8253 L14.3336 19.8319 L14.4368 19.8359 L14.5399 19.8373 L14.6431 19.8359 L14.7463 19.8319 L14.8492 19.8253 L14.952 19.816 L15.0545 19.804 L15.1567 19.7894 L15.2584 19.7722 L15.3597 19.7523 L15.4604 19.7298 L15.5605 19.7048 L15.66 19.6771 L15.7586 19.6469 L15.8565 19.6142 L15.9535 19.5789 L16.0495 19.5412 L16.1446 19.501 L16.2385 19.4583 L16.3314 19.4133 L16.423 19.3658 L16.5134 19.316 L16.6025 19.2639 L16.6902 19.2095 L16.7765 19.1529 L16.8612 19.094 L16.8612 19.094 Z" fill="black" stroke="none"/>
    <path id="MLout" d="M15.7392 16.1979 L18.8199 16.1979 L18.8199 13.7994 L15.7392 13.7994 Z" fill="black" stroke="none"/>
    <rect id="P2" x="18.8149" y="14.9936" width="0.01" height="0.01" fill="black" stroke="none"/>
  </g>
</svg>
