<?xml version="1.0" encoding="UTF-8"?>
<!-- Generated by Qucs-RFlayout from : circuit.sch -->
<svg xmlns="http://www.w3.org/2000/svg" version="1.1" preserveAspectRatio="xMidYMid meet" viewBox="38.4 38.4 98.4457 110.923" width="15.8871mm" height="19.1884mm">
  <g id="circuit" transform="scale(3.779527559)">
    <rect id="P1" x="10.255" y="19.7492" width="0.01" height="0.01" fill="black" stroke="none"/>
    <path id="MLin" d="M10.26 20.7819 L17.0759 20.7819 L17.0759 18.7266 L10.26 18.7266 Z" fill="black" stroke="none"/>
    <path id="J1" d="M17.0759 18.7266 L19.1312 18.7266 L19.1312 20.7819 L17.0759 20.7819 Z" fill="black" stroke="none"/>
    <path id="MSW1" d="M18.7178 18.7266 L17.4893 18.7266 L10.9202 13.7148 L10.9202 13.7148 L11.1353 13.4438 L11.3606 13.1812 L11.5958 12.9275 L11.8405 12.6829 L12.0945 12.4479 L12.3572 12.2228 L12.6283 12.0079 L12.9075 11.8036 L13.1943 11.6101 L13.4883 11.4277 L13.7891 11.2567 L14.0962 11.0973 L14.4091 10.9498 L14.7275 10.8144 L15.0508 10.6913 L15.3787 10.5807 L15.7105 10.4827 L16.0458 10.3974 L16.3841 10.3251 L16.725 10.2658 L17.0678 10.2196 L17.4122 10.1865 L17.7576 10.1666 L18.1036 10.16 L18.4495 10.1666 L18.7949 10.1865 L19.1393 10.2196 L19.4821 10.2658 L19.823 10.3251 L20.1613 10.3974 L20.4966 10.4827 L20.8284 10.5807 L21.1563 10.6913 L21.4796 10.8144 L21.798 10.9498 L22.1109 11.0973 L22.418 11.2567 L22.7188 11.4277 L23.0128 11.6101 L23.2996 11.8036 L23.5788 12.0079 L23.8499 12.2228 L24.1126 12.4479 L24.3666 12.6829 L24.6113 12.9275 L24.8465 13.1812 L25.0718 13.4438 L25.2869 13.7148 L25.2869 13.7148 Z" fill="black" stroke="none"/>
    <path id="MSW2" d="M18.7178 20.7819 L17.4893 20.7819 L10.9202 25.7936 L10.9202 25.7936 L11.1353 26.0646 L11.3606 26.3272 L11.5958 26.581 L11.8405 26.8255 L12.0945 27.0605 L12.3572 27.2856 L12.6283 27.5005 L12.9075 27.7049 L13.1943 27.8984 L13.4883 28.0808 L13.7891 28.2518 L14.0962 28.4111 L14.4091 28.5586 L14.7275 28.694 L15.0508 28.8171 L15.3787 28.9278 L15.7105 29.0258 L16.0458 29.111 L16.3841 29.1833 L16.725 29.2426 L17.0678 29.2889 L17.4122 29.322 L17.7576 29.3418 L18.1036 29.3484 L18.4495 29.3418 L18.7949 29.322 L19.1393 29.2889 L19.4821 29.2426 L19.823 29.1833 L20.1613 29.111 L20.4966 29.0258 L20.8284 28.9278 L21.1563 28.8171 L21.4796 28.694 L21.798 28.5586 L22.1109 28.4111 L22.418 28.2518 L22.7188 28.0808 L23.0128 27.8984 L23.2996 27.7049 L23.5788 27.5005 L23.8499 27.2856 L24.1126 27.0605 L24.3666 26.8255 L24.6113 26.581 L24.8465 26.3272 L25.0718 26.0646 L25.2869 25.7936 L25.2869 25.7936 Z" fill="black" stroke="none"/>
    <path id="MLout" d="M19.1312 20.7819 L25.9471 20.7819 L25.9471 18.7266 L19.1312 18.7266 Z" fill="black" stroke="none"/>
    <rect id="P2" x="25.9421" y="19.7492" width="0.01" height="0.01" fill="black" stroke="none"/>
  </g>
</svg>
