<?xml version="1.0" encoding="UTF-8"?>
<!-- Generated by Qucs-RFlayout from : circuit.sch -->
<svg xmlns="http://www.w3.org/2000/svg" version="1.1" preserveAspectRatio="xMidYMid meet" viewBox="38.4 38.4 80.4761 87.0602" width="11.1326mm" height="12.8747mm">
  <g id="circuit" transform="scale(3.779527559)">
    <rect id="P1" x="13.1826" y="16.5923" width="0.01" height="0.01" fill="black" stroke="none"/>
    <path id="MLin" d="M13.1876 17.3667 L14.9569 17.3667 L14.9569 15.8279 L13.1876 15.8279 Z" fill="black" stroke="none"/>
    <path id="J1" d="M14.9569 15.8279 L16.4957 15.8279 L16.4957 17.3667 L14.9569 17.3667 Z" fill="black" stroke="none"/>
    <path id="MSW1" d="M16.6678 15.8279 L14.7849 15.8279 L10.16 13.7899 L10.16 13.7899 L10.2845 13.5248 L10.4217 13.266 L10.5711 13.0141 L10.7325 12.7697 L10.9055 12.5334 L11.0896 12.3056 L11.2845 12.087 L11.4897 11.878 L11.7047 11.6791 L11.9291 11.4908 L12.1622 11.3135 L12.4037 11.1477 L12.6528 10.9936 L12.909 10.8518 L13.1718 10.7224 L13.4405 10.6058 L13.7145 10.5023 L13.9931 10.4121 L14.2758 10.3355 L14.5619 10.2725 L14.8506 10.2234 L15.1414 10.1882 L15.4335 10.1671 L15.7263 10.16 L16.0191 10.1671 L16.3113 10.1882 L16.602 10.2234 L16.8908 10.2725 L17.1768 10.3355 L17.4595 10.4121 L17.7382 10.5023 L18.0122 10.6058 L18.2809 10.7224 L18.5436 10.8518 L18.7999 10.9936 L19.049 11.1477 L19.2904 11.3135 L19.5235 11.4908 L19.7479 11.6791 L19.9629 11.878 L20.1681 12.087 L20.363 12.3056 L20.5472 12.5334 L20.7201 12.7697 L20.8815 13.0141 L21.031 13.266 L21.1681 13.5248 L21.2926 13.7899 L21.2926 13.7899 Z" fill="black" stroke="none"/>
    <path id="MSW2" d="M16.6678 17.3667 L14.7849 17.3667 L10.16 19.4047 L10.16 19.4047 L10.2845 19.6698 L10.4217 19.9286 L10.5711 20.1805 L10.7325 20.425 L10.9055 20.6613 L11.0896 20.8891 L11.2845 21.1077 L11.4897 21.3167 L11.7047 21.5156 L11.9291 21.7039 L12.1622 21.8812 L12.4037 22.047 L12.6528 22.2011 L12.909 22.3429 L13.1718 22.4723 L13.4405 22.5889 L13.7145 22.6924 L13.9931 22.7825 L14.2758 22.8592 L14.5619 22.9222 L14.8506 22.9713 L15.1414 23.0065 L15.4335 23.0276 L15.7263 23.0347 L16.0191 23.0276 L16.3113 23.0065 L16.602 22.9713 L16.8908 22.9222 L17.1768 22.8592 L17.4595 22.7825 L17.7382 22.6924 L18.0122 22.5889 L18.2809 22.4723 L18.5436 22.3429 L18.7999 22.2011 L19.049 22.047 L19.2904 21.8812 L19.5235 21.7039 L19.7479 21.5156 L19.9629 21.3167 L20.1681 21.1077 L20.363 20.8891 L20.5472 20.6613 L20.7201 20.425 L20.8815 20.1805 L21.031 19.9286 L21.1681 19.6698 L21.2926 19.4047 L21.2926 19.4047 Z" fill="black" stroke="none"/>
    <path id="MLout" d="M16.4957 17.3667 L18.265 17.3667 L18.265 15.8279 L16.4957 15.8279 Z" fill="black" stroke="none"/>
    <rect id="P2" x="18.26" y="16.5923" width="0.01" height="0.01" fill="black" stroke="none"/>
  </g>
</svg>
